<svg width="210" height="57" viewBox="0 0 210 57" fill="none" xmlns="http://www.w3.org/2000/svg">
<path fill-rule="evenodd" clip-rule="evenodd" d="M27.7764 30.0615V20.3601L0.975753 30.3288H0.920715V40.2817H0.975753L27.7764 50.2504V40.5333L14.0419 35.2816L27.7764 30.0615Z" fill="#996DFF"/>
<path fill-rule="evenodd" clip-rule="evenodd" d="M183.016 49.7473V40.0459L196.742 34.8257L183.016 29.6055V19.9041L209.777 29.865H209.84V39.8258H209.777L183.016 49.7394V49.7473ZM171.522 6.20114L155.783 56.7206H165.13L180.869 6.20114H171.522Z" fill="#996DFF"/>
<path fill-rule="evenodd" clip-rule="evenodd" d="M67.1573 18.528C69.8146 21.4525 71.214 25.3048 71.0489 29.2514V50.7689H61.7013V31.2247C61.8114 29.047 61.1117 26.9086 59.7516 25.2104C58.4544 23.701 56.5362 22.8676 54.5471 22.9541C48.698 22.9541 45.7656 27.0108 45.7656 35.132V50.7768H36.418V15.4462H45.7656V18.638C48.7294 15.7528 52.7547 14.2198 56.8899 14.3927C60.7422 14.2276 64.4843 15.7371 67.1495 18.528H67.1573Z" fill="white"/>
<path fill-rule="evenodd" clip-rule="evenodd" d="M82.9434 0.752991V51.2725H92.291V0.752991H82.9434Z" fill="white"/>
<path fill-rule="evenodd" clip-rule="evenodd" d="M145.105 49.4246H137.306L129.664 28.6146L121.952 49.4246H114.169L101.071 14.0311H111.055L118.414 35.1949L126.001 14.0311H133.288L140.875 35.2656L148.234 14.0311H158.218L145.105 49.4246Z" fill="white"/>
</svg>
